<?xml version="1.0" encoding="utf-8"?>
<!-- Generator: Adobe Illustrator 22.0.1, SVG Export Plug-In . SVG Version: 6.00 Build 0)  -->
<svg version="1.1" id="Calque_1" xmlns="http://www.w3.org/2000/svg" xmlns:xlink="http://www.w3.org/1999/xlink" x="0px" y="0px"
	 viewBox="0 0 421 104" style="enable-background:new 0 0 421 104;" xml:space="preserve">
<style type="text/css">
	.st0{enable-background:new    ;}
</style>
<g id="Symbole_1_1">
	<g class="st0">
		<path d="M240.2,32.7c0.2,1.9-0.5,3.1-2.1,4.2c-1.2-0.1-5.2-0.5-7.4-0.3c-3.8,0.3-8.3,1-12.7,2.4c0.1,1.9,0.2,4.1,0.4,6.3
			c0.2,2.1,0.4,4.4,0.5,6.6c3.9-0.9,7.9-1.3,11.4-1.7c0.2,0.6,0.3,1.3,0.3,1.8c0.2,1.8-0.8,2.5-1.8,3.1c-1.8,1.1-5.1,1.2-9.6,2.2
			c0.4,7,0.6,13.7,0.4,17.4c-0.2,2.4-1.7,3.4-3.1,3.5c-1.9,0.2-2.7-0.5-3.4-1.1c0,0-2-18.3-3.1-30.5c-0.1-1.4-0.2-2.7-0.3-4.1
			l-0.1,0c-4.5,2.8-4.4,4.5-4.3,6.2l0.4,2.4c0,0.5-1.4,1.6-2.7,1.7c-1.8,0.2-3.9-0.7-4.1-3.3c-0.2-2.6,1.7-6.4,8.9-11.1l1.7-1.1
			c0-1.6,0.2-2.9,0.5-3.5c1.3-2.2,3.1-2.6,4.7-2.8c1.4-0.1,2.5,0.3,2.9,0.5c0,0.1,0,0.7,0.1,1.6c5.1-2.1,9.8-3,13.9-3.4
			C237.3,29.4,239.9,30.1,240.2,32.7z"/>
		<path d="M259.7,68.9c0.3,3.7-3.1,4.5-4.1,4.6c-7.5,0.7-10.3-4.5-11.6-18.7c-0.5-6-1.4-15.8-2.2-21.2c0.7-0.2,1.5-0.3,2.1-0.3
			c4.7-0.4,6.4,2,6.8,6.3c0.4,4.8,0.4,15.1,1.3,20.3c1.1,5.9,2.4,8,5.4,7.7c0.6-0.1,1.3-0.2,2.1-0.5
			C259.5,67.8,259.7,68.4,259.7,68.9z"/>
		<path d="M269.1,42.6c0.2,2.1-2.5,4.7-4.5,4.9c-2.5,0.2-3.8-3.1-3.9-4.7c-0.2-2.1,2.6-3.1,4.5-3.2C267.7,39.4,269,41.1,269.1,42.6z
			 M267.3,71.9c-3.6,0.3-4.3-2.1-4.8-7.4c-0.3-3-0.3-5.9-0.7-10.3c-0.1-0.6-0.2-2.4-0.4-3.9c1.1-0.3,2-0.5,3.1-0.6
			c3-0.3,4.7,1,5,4.1c0.5,5.7,0.4,9.2,1.1,16.6C269.4,71.3,268.5,71.8,267.3,71.9z"/>
		<path d="M297.7,51.2c0.6,7.2-4.1,12.6-11.1,14.7c-0.8,0.3-2.3,0.1-3.6-0.2c0.1,1.4,0.1,3.1,0.3,4.7c0.5,5.6,1.6,11.2,2.5,15
			c-1.6,0.5-2.9,0.8-4,0.9c-3.9,0.3-5.3-2.1-5.6-10.3c-0.3-7.7-0.7-16.5-1-20.7c-0.4-4.4-0.5-6.7-2.1-11.1c1.4-1.4,2.8-2.3,4.1-2.4
			c1.9-0.2,3.4,1.3,3.7,4.7c0.2,1.7,0,3.7-0.1,4.2c2-2.7,6-6.7,9.8-7c2.2-0.2,3.9,0.9,5,2C296.7,46.9,297.5,49.5,297.7,51.2z
			 M291.9,52.4c-0.1-1.1-0.8-3.5-2.2-3.4c-2.5,0.2-6.2,2.9-6.7,13.2c1.1,0.3,2.5,0.4,3.9-0.4C288.3,61,292.2,56.6,291.9,52.4z"/>
		<path d="M320.1,61.6c0.3,3.2-3.6,5.8-7.5,6.1c-5,0.4-12.2-2.7-13-11.7c-0.6-6.8,3-13.7,9.6-14.3c4.4-0.4,7.7,1.9,8.1,6.4
			c0.5,5.7-4.5,9.7-8.3,12.1c1.2,1.8,2.6,2.4,4,2.2c2.7-0.2,4.3-2.6,5.3-3.7C319.8,59.1,320,60.5,320.1,61.6z M307.1,53.5
			c0.1,1.1,0.2,2.1,0.4,3c2.8-2.3,5.5-4.9,5.2-8.3c-0.2-1.9-2-1.9-2.8-1.8C308.6,46.6,306.7,48.7,307.1,53.5z"/>
		<path d="M344.3,49.7c0.6,6.9-2.8,15-10.7,15.8c-7.4,0.8-11.3-5.2-11.7-10.4c-0.4-4.3,1.4-8.4,5.2-8.7l0.1,0
			c0.1-4.4,3.1-6.8,7.1-7.2C340.4,38.7,343.7,43.8,344.3,49.7z M337.1,52.3c-0.4-4.2-1.8-8.3-5.5-8c-1.4,0.1-2.3,1.5-2.8,2.4
			c1.9,0.5,2.7,2.2,2.9,4.2c0.1,0.8,0,1.6-0.1,2.4c-1.5,0.7-2.1,2.8-1.9,4.7c0.2,2.3,2,4.5,4,4.3C336.7,62,337.4,56.2,337.1,52.3z"
			/>
	</g>
</g>
</svg>
